<?xml version="1.0" encoding="utf-8" ?>
<svg xmlns="http://www.w3.org/2000/svg" xmlns:xlink="http://www.w3.org/1999/xlink" width="2240" height="1822">
	<path fill="none" stroke="white" stroke-width="1" stroke-linecap="square" stroke-miterlimit="10" transform="matrix(0.978148 0.207912 -0.207912 0.978148 354.739 12.5061)" d="M0.5 0.64324081L0.5 1436.3568" fill-rule="evenodd"/>
	<path fill="none" stroke="white" stroke-width="1" stroke-linecap="square" stroke-miterlimit="10" transform="matrix(0.978148 0.207912 -0.207912 0.978148 408.75 24.4021)" d="M1 0L0.5 1436.3568" fill-rule="evenodd"/>
	<path fill="none" stroke="white" stroke-width="1" stroke-linecap="square" stroke-miterlimit="10" transform="matrix(0.978148 0.207912 -0.207912 0.978148 465.739 35.5061)" d="M0.5 0.64324081L0.5 1436.3568" fill-rule="evenodd"/>
	<path fill="none" stroke="white" stroke-width="1" stroke-linecap="square" stroke-miterlimit="10" transform="matrix(0.978148 0.207912 -0.207912 0.978148 520.75 48.4021)" d="M1 0L0.5 1436.3568" fill-rule="evenodd"/>
	<path fill="none" stroke="white" stroke-width="1" stroke-linecap="square" stroke-miterlimit="10" transform="matrix(0.978148 0.207912 -0.207912 0.978148 576.739 59.5061)" d="M0.5 0.64324081L0.5 1436.3568" fill-rule="evenodd"/>
	<path fill="none" stroke="white" stroke-width="1" stroke-linecap="square" stroke-miterlimit="10" transform="matrix(0.978148 0.207912 -0.207912 0.978148 631.75 73.4021)" d="M1 0L0.5 1436.3568" fill-rule="evenodd"/>
	<path fill="none" stroke="white" stroke-width="1" stroke-linecap="square" stroke-miterlimit="10" transform="matrix(0.978148 0.207912 -0.207912 0.978148 687.739 82.5061)" d="M0.5 0.64324081L0.5 1436.3568" fill-rule="evenodd"/>
	<path fill="none" stroke="white" stroke-width="1" stroke-linecap="square" stroke-miterlimit="10" transform="matrix(0.978148 0.207912 -0.207912 0.978148 744.75 97.4021)" d="M1 0L0.5 1436.3568" fill-rule="evenodd"/>
	<path fill="none" stroke="white" stroke-width="1" stroke-linecap="square" stroke-miterlimit="10" transform="matrix(0.978148 0.207912 -0.207912 0.978148 800.739 108.506)" d="M0.5 0.64324081L0.5 1436.3568" fill-rule="evenodd"/>
	<path fill="none" stroke="white" stroke-width="1" stroke-linecap="square" stroke-miterlimit="10" transform="matrix(0.978148 0.207912 -0.207912 0.978148 856.75 122.402)" d="M1 0L0.5 1436.3568" fill-rule="evenodd"/>
	<path fill="none" stroke="white" stroke-width="1" stroke-linecap="square" stroke-miterlimit="10" transform="matrix(0.978148 0.207912 -0.207912 0.978148 911.739 132.506)" d="M0.5 0.64324081L0.5 1436.3568" fill-rule="evenodd"/>
	<path fill="none" stroke="white" stroke-width="1" stroke-linecap="square" stroke-miterlimit="10" transform="matrix(0.978148 0.207912 -0.207912 0.978148 967.75 143.402)" d="M1 0L0.5 1436.3568" fill-rule="evenodd"/>
	<path fill="none" stroke="white" stroke-width="1" stroke-linecap="square" stroke-miterlimit="10" transform="matrix(0.978148 0.207912 -0.207912 0.978148 1022.74 156.506)" d="M0.5 0.64324081L0.5 1436.3568" fill-rule="evenodd"/>
	<path fill="none" stroke="white" stroke-width="1" stroke-linecap="square" stroke-miterlimit="10" transform="matrix(0.978148 0.207912 -0.207912 0.978148 1078.75 169.402)" d="M1 0L0.5 1436.3568" fill-rule="evenodd"/>
	<path fill="none" stroke="white" stroke-width="1" stroke-linecap="square" stroke-miterlimit="10" transform="matrix(0.978148 0.207912 -0.207912 0.978148 1133.74 180.506)" d="M0.5 0.64324081L0.5 1436.3568" fill-rule="evenodd"/>
	<path fill="none" stroke="white" stroke-width="1" stroke-linecap="square" stroke-miterlimit="10" transform="matrix(0.978148 0.207912 -0.207912 0.978148 1190.75 192.402)" d="M1 0L0.5 1436.3568" fill-rule="evenodd"/>
	<path fill="none" stroke="white" stroke-width="1" stroke-linecap="square" stroke-miterlimit="10" transform="matrix(0.978148 0.207912 -0.207912 0.978148 1247.43 202.473)" d="M0.5 0.64189792L0.5 1433.3582" fill-rule="evenodd"/>
	<path fill="none" stroke="white" stroke-width="1" stroke-linecap="square" stroke-miterlimit="10" transform="matrix(0.978148 0.207912 -0.207912 0.978148 1303.44 214.369)" d="M1 0L0.5 1433.3582" fill-rule="evenodd"/>
	<path fill="none" stroke="white" stroke-width="1" stroke-linecap="square" stroke-miterlimit="10" transform="matrix(0.978148 0.207912 -0.207912 0.978148 1359.43 225.473)" d="M0.5 0.64189792L0.5 1433.3582" fill-rule="evenodd"/>
	<path fill="none" stroke="white" stroke-width="1" stroke-linecap="square" stroke-miterlimit="10" transform="matrix(0.978148 0.207912 -0.207912 0.978148 1414.44 239.369)" d="M1 0L0.5 1433.3582" fill-rule="evenodd"/>
	<path fill="none" stroke="white" stroke-width="1" stroke-linecap="square" stroke-miterlimit="10" transform="matrix(0.978148 0.207912 -0.207912 0.978148 1471.43 250.473)" d="M0.5 0.64189792L0.5 1433.3582" fill-rule="evenodd"/>
	<path fill="none" stroke="white" stroke-width="1" stroke-linecap="square" stroke-miterlimit="10" transform="matrix(0.978148 0.207912 -0.207912 0.978148 1527.44 263.369)" d="M1 0L0.5 1433.3582" fill-rule="evenodd"/>
	<path fill="none" stroke="white" stroke-width="1" stroke-linecap="square" stroke-miterlimit="10" transform="matrix(0.978148 0.207912 -0.207912 0.978148 1582.43 273.473)" d="M0.5 0.64189792L0.5 1433.3582" fill-rule="evenodd"/>
	<path fill="none" stroke="white" stroke-width="1" stroke-linecap="square" stroke-miterlimit="10" transform="matrix(0.978148 0.207912 -0.207912 0.978148 1638.44 286.369)" d="M1 0L0.5 1433.3582" fill-rule="evenodd"/>
	<path fill="none" stroke="white" stroke-width="1" stroke-linecap="square" stroke-miterlimit="10" transform="matrix(0.978148 0.207912 -0.207912 0.978148 1694.43 298.473)" d="M0.5 0.64189792L0.5 1433.3582" fill-rule="evenodd"/>
	<path fill="none" stroke="white" stroke-width="1" stroke-linecap="square" stroke-miterlimit="10" transform="matrix(0.978148 0.207912 -0.207912 0.978148 1750.44 312.369)" d="M1 0L0.5 1433.3582" fill-rule="evenodd"/>
	<path fill="none" stroke="white" stroke-width="1" stroke-linecap="square" stroke-miterlimit="10" transform="matrix(0.978148 0.207912 -0.207912 0.978148 1805.43 322.473)" d="M0.5 0.64189792L0.5 1433.3582" fill-rule="evenodd"/>
	<path fill="none" stroke="white" stroke-width="1" stroke-linecap="square" stroke-miterlimit="10" transform="matrix(0.978148 0.207912 -0.207912 0.978148 1862.44 335.369)" d="M1 0L0.5 1433.3582" fill-rule="evenodd"/>
	<path fill="none" stroke="white" stroke-width="1" stroke-linecap="square" stroke-miterlimit="10" transform="matrix(0.978148 0.207912 -0.207912 0.978148 1917.43 347.473)" d="M0.5 0.64189792L0.5 1433.3582" fill-rule="evenodd"/>
	<path fill="none" stroke="white" stroke-width="1" stroke-linecap="square" stroke-miterlimit="10" transform="matrix(0.978148 0.207912 -0.207912 0.978148 1973.44 360.369)" d="M1 0L0.5 1433.3582" fill-rule="evenodd"/>
	<path fill="none" stroke="white" stroke-width="1" stroke-linecap="square" stroke-miterlimit="10" transform="matrix(0.978148 0.207912 -0.207912 0.978148 2029.43 369.473)" d="M0.5 0.64189792L0.5 1433.3582" fill-rule="evenodd"/>
	<path fill="none" stroke="white" stroke-width="1" stroke-linecap="square" stroke-miterlimit="10" transform="matrix(0.978148 0.207912 -0.207912 0.978148 2083.44 384.369)" d="M1 0L0.5 1433.3582" fill-rule="evenodd"/>
	<path fill="none" stroke="white" stroke-width="1" stroke-linecap="square" stroke-miterlimit="10" transform="matrix(0.978148 0.207912 -0.207912 0.978148 2140.43 394.473)" d="M0.5 0.64189792L0.5 1433.3582" fill-rule="evenodd"/>
	<path fill="none" stroke="white" stroke-width="1" stroke-linecap="square" stroke-miterlimit="10" transform="matrix(0.978148 0.207912 -0.207912 0.978148 2195.44 408.369)" d="M1 0L0.5 1433.3582" fill-rule="evenodd"/>
	<path fill="none" stroke="white" stroke-width="1" stroke-linecap="square" stroke-miterlimit="10" transform="matrix(0.978148 0.207912 -0.207912 0.978148 289.071 60.1914)" d="M0.57196534 0.5L1978.428 0.5" fill-rule="evenodd"/>
	<path fill="none" stroke="white" stroke-width="1" stroke-linecap="square" stroke-miterlimit="10" transform="matrix(0.978148 0.207912 -0.207912 0.978148 277.071 123.191)" d="M0.57196534 0.5L1978.428 0.5" fill-rule="evenodd"/>
	<path fill="none" stroke="white" stroke-width="1" stroke-linecap="square" stroke-miterlimit="10" transform="matrix(0.978148 0.207912 -0.207912 0.978148 262.071 185.191)" d="M0.57196534 0.5L1978.428 0.5" fill-rule="evenodd"/>
	<path fill="none" stroke="white" stroke-width="1" stroke-linecap="square" stroke-miterlimit="10" transform="matrix(0.978148 0.207912 -0.207912 0.978148 251.071 247.191)" d="M0.57196534 0.5L1978.428 0.5" fill-rule="evenodd"/>
	<path fill="none" stroke="white" stroke-width="1" stroke-linecap="square" stroke-miterlimit="10" transform="matrix(0.978148 0.207912 -0.207912 0.978148 234.071 308.191)" d="M0.57196534 0.5L1978.428 0.5" fill-rule="evenodd"/>
	<path fill="none" stroke="white" stroke-width="1" stroke-linecap="square" stroke-miterlimit="10" transform="matrix(0.978148 0.207912 -0.207912 0.978148 222.071 372.191)" d="M0.57196534 0.5L1978.428 0.5" fill-rule="evenodd"/>
	<path fill="none" stroke="white" stroke-width="1" stroke-linecap="square" stroke-miterlimit="10" transform="matrix(0.978148 0.207912 -0.207912 0.978148 208.071 434.191)" d="M0.57196534 0.5L1978.428 0.5" fill-rule="evenodd"/>
	<path fill="none" stroke="white" stroke-width="1" stroke-linecap="square" stroke-miterlimit="10" transform="matrix(0.978148 0.207912 -0.207912 0.978148 196.071 497.191)" d="M0.57196534 0.5L1978.428 0.5" fill-rule="evenodd"/>
	<path fill="none" stroke="white" stroke-width="1" stroke-linecap="square" stroke-miterlimit="10" transform="matrix(0.978148 0.207912 -0.207912 0.978148 186.961 561.231)" d="M0.56907517 0.5L1968.4309 0.5" fill-rule="evenodd"/>
	<path fill="none" stroke="white" stroke-width="1" stroke-linecap="square" stroke-miterlimit="10" transform="matrix(0.978148 0.207912 -0.207912 0.978148 175.961 623.231)" d="M0.56907517 0.5L1968.4309 0.5" fill-rule="evenodd"/>
	<path fill="none" stroke="white" stroke-width="1" stroke-linecap="square" stroke-miterlimit="10" transform="matrix(0.978148 0.207912 -0.207912 0.978148 161.961 687.231)" d="M0.56907517 0.5L1968.4309 0.5" fill-rule="evenodd"/>
	<path fill="none" stroke="white" stroke-width="1" stroke-linecap="square" stroke-miterlimit="10" transform="matrix(0.978148 0.207912 -0.207912 0.978148 149.961 749.231)" d="M0.56907517 0.5L1968.4309 0.5" fill-rule="evenodd"/>
	<path fill="none" stroke="white" stroke-width="1" stroke-linecap="square" stroke-miterlimit="10" transform="matrix(0.978148 0.207912 -0.207912 0.978148 131.961 811.231)" d="M0.56907517 0.5L1968.4309 0.5" fill-rule="evenodd"/>
	<path fill="none" stroke="white" stroke-width="1" stroke-linecap="square" stroke-miterlimit="10" transform="matrix(0.978148 0.207912 -0.207912 0.978148 120.961 873.231)" d="M0.56907517 0.5L1968.4309 0.5" fill-rule="evenodd"/>
	<path fill="none" stroke="white" stroke-width="1" stroke-linecap="square" stroke-miterlimit="10" transform="matrix(0.978148 0.207912 -0.207912 0.978148 107.961 936.231)" d="M0.56907517 0.5L1968.4309 0.5" fill-rule="evenodd"/>
	<path fill="none" stroke="white" stroke-width="1" stroke-linecap="square" stroke-miterlimit="10" transform="matrix(0.978148 0.207912 -0.207912 0.978148 94.9613 999.231)" d="M0.56907517 0.5L1968.4309 0.5" fill-rule="evenodd"/>
	<path fill="none" stroke="white" stroke-width="1" stroke-linecap="square" stroke-miterlimit="10" transform="matrix(0.978148 0.207912 -0.207912 0.978148 83.9613 1061.23)" d="M0.56907517 0.5L1968.4309 0.5" fill-rule="evenodd"/>
	<path fill="none" stroke="white" stroke-width="1" stroke-linecap="square" stroke-miterlimit="10" transform="matrix(0.978148 0.207912 -0.207912 0.978148 72.9613 1123.23)" d="M0.56907517 0.5L1968.4309 0.5" fill-rule="evenodd"/>
	<path fill="none" stroke="white" stroke-width="1" stroke-linecap="square" stroke-miterlimit="10" transform="matrix(0.978148 0.207912 -0.207912 0.978148 54.9613 1184.23)" d="M0.56907517 0.5L1968.4309 0.5" fill-rule="evenodd"/>
	<path fill="none" stroke="white" stroke-width="1" stroke-linecap="square" stroke-miterlimit="10" transform="matrix(0.978148 0.207912 -0.207912 0.978148 43.9613 1247.23)" d="M0.56907517 0.5L1968.4309 0.5" fill-rule="evenodd"/>
	<path fill="none" stroke="white" stroke-width="1" stroke-linecap="square" stroke-miterlimit="10" transform="matrix(0.978148 0.207912 -0.207912 0.978148 29.9613 1310.23)" d="M0.56907517 0.5L1968.4309 0.5" fill-rule="evenodd"/>
	<path fill="none" stroke="white" stroke-width="1" stroke-linecap="square" stroke-miterlimit="10" transform="matrix(0.978148 0.207912 -0.207912 0.978148 17.9613 1373.23)" d="M0.56907517 0.5L1968.4309 0.5" fill-rule="evenodd"/>
</svg>
